<?xml version="1.0" encoding="UTF-8" standalone="no"?>
<!-- Created with Inkscape (http://www.inkscape.org/) -->

<svg
   version="1.1"
   id="svg2"
   xml:space="preserve"
   width="1333.3333"
   height="1066.6667"
   viewBox="0 0 1333.3333 1066.6667"
   sodipodi:docname="20-01.eps"
   xmlns:inkscape="http://www.inkscape.org/namespaces/inkscape"
   xmlns:sodipodi="http://sodipodi.sourceforge.net/DTD/sodipodi-0.dtd"
   xmlns="http://www.w3.org/2000/svg"
   xmlns:svg="http://www.w3.org/2000/svg"><defs
     id="defs6"><clipPath
       clipPathUnits="userSpaceOnUse"
       id="clipPath18"><path
         d="m 3672.34,4452.91 39.84,288.97 22.01,-4.17 c 18.85,-3.58 38.33,0.83 53.8,12.17 19.87,14.54 30.51,38.55 27.95,63.04 l -15.73,150.42 50,5.23 194.37,-70.66 165.42,-70.51 c 16.56,-7.06 34.16,-11.42 52.1,-12.91 l 135.37,-11.24 c 17.34,-1.44 34.35,-5.56 50.43,-12.21 l 35.11,-14.52 c 56.94,-23.55 88.05,-85.25 73.12,-145.03 -13.2,-52.9 -43.19,-100.1 -85.47,-134.52 -36.58,-29.76 -80.76,-48.68 -127.55,-54.6 l -122.25,-15.47 c -23.62,-2.99 -46.7,-9.31 -68.55,-18.77 l -107.6,-46.6 c -19.05,-8.25 -39.04,-14.11 -59.53,-17.46 l -312.01,-51.01 -171.84,-48.28 26.85,12.56 c 62.87,29.39 110.98,83.21 133.18,148.96 5.12,15.16 8.8,30.77 10.98,46.61 z m -138.87,209.65 -131.46,-241.17 -71.45,-179.24 c -8.3,-20.82 -11.42,-43.35 -9.09,-65.64 l 1.91,-18.28 c 2.91,-27.86 14.2,-54.17 32.38,-75.47 22.77,-26.69 54.83,-43.74 89.7,-47.69 l 293.53,-33.31 351.22,-23.93 37.83,-71.86 5.92,-501.17 c 92.9,8.41 189.02,22.86 287.4,43.39 l 37.81,200.19 c 32.99,174.68 132.51,329.71 277.6,432.43 l 184.18,130.4 c 0,0 133.86,22.05 183.99,165.71 14.91,42.72 42.49,79.88 77.83,108.12 l 79.6,63.63 c 16.29,13.02 34.2,23.87 53.29,32.27 l 391.6,172.35 277.64,99.77 186.61,100.37 v 0 c 54.73,38.35 94.08,94.87 111.04,159.51 l 34.58,131.72 c 2.6,9.9 -10.2,16.31 -16.57,8.28 l -99.11,-124.91 c -53.98,-68.03 -126.8,-118.67 -209.37,-145.6 l -10.24,-3.34 v 0 c -159.04,-16.62 -314.6,-57.49 -461.27,-121.2 l -73.6,-31.96 -329.95,-34.49 21.21,38.84 31.89,1.93 c 48.56,2.95 88.22,39.9 94.6,88.13 l 5.95,45.07 19.1,15.95 c 10.56,8.82 13.55,23.81 7.18,36 l -20.68,39.6 c 0,0 45.65,191.77 -100.6,237.13 -146.24,45.36 -331.22,26.03 -258.9,-375.77 0.45,-19.13 -18.77,-32.52 -36.56,-25.47 l -32.58,12.92 c -80.51,31.92 -165.7,50.42 -252.2,54.77 l -98,4.92 -144.82,0.85 c -48.31,0.28 -96.49,5.17 -143.87,14.6 l -315.86,62.87 -94.72,15.78 c -34.69,5.78 -70.21,-3.25 -97.93,-24.89 v 0 c -20.35,-15.88 -35.31,-37.64 -42.85,-62.33 l -22.31,-73.01 124.11,69.83 -139.01,-120.66 z"
         id="path16" /></clipPath><radialGradient
       fx="0"
       fy="0"
       cx="0"
       cy="0"
       r="1"
       gradientUnits="userSpaceOnUse"
       gradientTransform="matrix(-2100,-4040,-4040,2100,5426.27,5335.47)"
       spreadMethod="pad"
       id="radialGradient24"><stop
         style="stop-opacity:1;stop-color:#e91067"
         offset="0"
         id="stop20" /><stop
         style="stop-opacity:1;stop-color:#b31652"
         offset="1"
         id="stop22" /></radialGradient><clipPath
       clipPathUnits="userSpaceOnUse"
       id="clipPath34"><path
         d="m 4331.65,2299.25 c -8.22,57.62 30.32,576.1 40.19,690.16 l 16.06,185.62 c -85.45,-15.96 -169.22,-27.76 -250.81,-35.43 l 1.45,-122.99 c 1.58,-133.69 -6.72,-773.62 -6.72,-773.62 L 4146.28,2134 c 5.2,-39.23 40.69,-67.19 80.05,-63.07 l 429.61,-15.46 c 2.94,0.31 5.9,0.71 8.81,1.3 152.86,31.02 -323.44,174.75 -333.1,242.48 z"
         id="path32" /></clipPath><radialGradient
       fx="0"
       fy="0"
       cx="0"
       cy="0"
       r="1"
       gradientUnits="userSpaceOnUse"
       gradientTransform="matrix(-2095.97,-4032.24,-4032.24,2095.97,5375.22,5335.47)"
       spreadMethod="pad"
       id="radialGradient40"><stop
         style="stop-opacity:1;stop-color:#e91067"
         offset="0"
         id="stop36" /><stop
         style="stop-opacity:1;stop-color:#b31652"
         offset="1"
         id="stop38" /></radialGradient><clipPath
       clipPathUnits="userSpaceOnUse"
       id="clipPath50"><path
         d="m 6739.74,5395.52 c -227.91,451.3 -958.85,562.9 -1773.68,322.26 693.3,183.86 1304.35,77.2 1499.92,-310.04 254.5,-503.94 -290.93,-1292.11 -1218.26,-1760.44 -927.33,-468.32 -1885.39,-439.46 -2139.89,64.48 -182.48,361.32 46.32,868.75 532.23,1299.65 -592.91,-495.69 -880.56,-1095.98 -667.27,-1518.32 285.48,-565.27 1360.17,-597.65 2400.38,-72.32 1040.22,525.34 1652.05,1409.46 1366.57,1974.73 z"
         id="path48" /></clipPath><linearGradient
       x1="0"
       y1="0"
       x2="1"
       y2="0"
       gradientUnits="userSpaceOnUse"
       gradientTransform="matrix(-4573.78,-2945.07,-2945.07,4573.78,6254.33,5328.85)"
       spreadMethod="pad"
       id="linearGradient56"><stop
         style="stop-opacity:1;stop-color:#f09c13"
         offset="0"
         id="stop52" /><stop
         style="stop-opacity:1;stop-color:#f04328"
         offset="1"
         id="stop54" /></linearGradient></defs><sodipodi:namedview
     id="namedview4"
     pagecolor="#ffffff"
     bordercolor="#666666"
     borderopacity="1.0"
     inkscape:pageshadow="2"
     inkscape:pageopacity="0.0"
     inkscape:pagecheckerboard="0" /><g
     id="g8"
     inkscape:groupmode="layer"
     inkscape:label="ink_ext_XXXXXX"
     transform="matrix(1.3333333,0,0,-1.3333333,0,1066.6667)"><g
       id="g10"
       transform="scale(0.1)"><g
         id="g12"><g
           id="g14"
           clip-path="url(#clipPath18)"><path
             d="m 3672.34,4452.91 39.84,288.97 22.01,-4.17 c 18.85,-3.58 38.33,0.83 53.8,12.17 19.87,14.54 30.51,38.55 27.95,63.04 l -15.73,150.42 50,5.23 194.37,-70.66 165.42,-70.51 c 16.56,-7.06 34.16,-11.42 52.1,-12.91 l 135.37,-11.24 c 17.34,-1.44 34.35,-5.56 50.43,-12.21 l 35.11,-14.52 c 56.94,-23.55 88.05,-85.25 73.12,-145.03 -13.2,-52.9 -43.19,-100.1 -85.47,-134.52 -36.58,-29.76 -80.76,-48.68 -127.55,-54.6 l -122.25,-15.47 c -23.62,-2.99 -46.7,-9.31 -68.55,-18.77 l -107.6,-46.6 c -19.05,-8.25 -39.04,-14.11 -59.53,-17.46 l -312.01,-51.01 -171.84,-48.28 26.85,12.56 c 62.87,29.39 110.98,83.21 133.18,148.96 5.12,15.16 8.8,30.77 10.98,46.61 z m -138.87,209.65 -131.46,-241.17 -71.45,-179.24 c -8.3,-20.82 -11.42,-43.35 -9.09,-65.64 l 1.91,-18.28 c 2.91,-27.86 14.2,-54.17 32.38,-75.47 22.77,-26.69 54.83,-43.74 89.7,-47.69 l 293.53,-33.31 351.22,-23.93 37.83,-71.86 5.92,-501.17 c 92.9,8.41 189.02,22.86 287.4,43.39 l 37.81,200.19 c 32.99,174.68 132.51,329.71 277.6,432.43 l 184.18,130.4 c 0,0 133.86,22.05 183.99,165.71 14.91,42.72 42.49,79.88 77.83,108.12 l 79.6,63.63 c 16.29,13.02 34.2,23.87 53.29,32.27 l 391.6,172.35 277.64,99.77 186.61,100.37 v 0 c 54.73,38.35 94.08,94.87 111.04,159.51 l 34.58,131.72 c 2.6,9.9 -10.2,16.31 -16.57,8.28 l -99.11,-124.91 c -53.98,-68.03 -126.8,-118.67 -209.37,-145.6 l -10.24,-3.34 v 0 c -159.04,-16.62 -314.6,-57.49 -461.27,-121.2 l -73.6,-31.96 -329.95,-34.49 21.21,38.84 31.89,1.93 c 48.56,2.95 88.22,39.9 94.6,88.13 l 5.95,45.07 19.1,15.95 c 10.56,8.82 13.55,23.81 7.18,36 l -20.68,39.6 c 0,0 45.65,191.77 -100.6,237.13 -146.24,45.36 -331.22,26.03 -258.9,-375.77 0.45,-19.13 -18.77,-32.52 -36.56,-25.47 l -32.58,12.92 c -80.51,31.92 -165.7,50.42 -252.2,54.77 l -98,4.92 -144.82,0.85 c -48.31,0.28 -96.49,5.17 -143.87,14.6 l -315.86,62.87 -94.72,15.78 c -34.69,5.78 -70.21,-3.25 -97.93,-24.89 v 0 c -20.35,-15.88 -35.31,-37.64 -42.85,-62.33 l -22.31,-73.01 124.11,69.83 -139.01,-120.66 -86.7,-185.94"
             style="fill:url(#radialGradient24);fill-opacity:1;fill-rule:nonzero;stroke:none"
             id="path26" /></g></g><g
         id="g28"><g
           id="g30"
           clip-path="url(#clipPath34)"><path
             d="m 4331.65,2299.25 c -8.22,57.62 30.32,576.1 40.19,690.16 l 16.06,185.62 c -85.45,-15.96 -169.22,-27.76 -250.81,-35.43 l 1.45,-122.99 c 1.58,-133.69 -6.72,-773.62 -6.72,-773.62 L 4146.28,2134 c 5.2,-39.23 40.69,-67.19 80.05,-63.07 l 429.61,-15.46 c 2.94,0.31 5.9,0.71 8.81,1.3 152.86,31.02 -323.44,174.75 -333.1,242.48"
             style="fill:url(#radialGradient40);fill-opacity:1;fill-rule:nonzero;stroke:none"
             id="path42" /></g></g><g
         id="g44"><g
           id="g46"
           clip-path="url(#clipPath50)"><path
             d="m 6739.74,5395.52 c -227.91,451.3 -958.85,562.9 -1773.68,322.26 693.3,183.86 1304.35,77.2 1499.92,-310.04 254.5,-503.94 -290.93,-1292.11 -1218.26,-1760.44 -927.33,-468.32 -1885.39,-439.46 -2139.89,64.48 -182.48,361.32 46.32,868.75 532.23,1299.65 -592.91,-495.69 -880.56,-1095.98 -667.27,-1518.32 285.48,-565.27 1360.17,-597.65 2400.38,-72.32 1040.22,525.34 1652.05,1409.46 1366.57,1974.73"
             style="fill:url(#linearGradient56);fill-opacity:1;fill-rule:nonzero;stroke:none"
             id="path58" /></g></g><path
         d="m 7027.51,5420.44 c -163.32,344.44 -587.87,521.75 -1128.68,524.09 492.79,-22.7 875.45,-198.71 1028.55,-521.59 301.94,-636.8 -403.24,-1603.46 -1575.08,-2159.09 -537.92,-255.06 -1080.61,-379.06 -1539.61,-377.1 479.07,-22.04 1062.15,100.74 1639.74,374.61 1171.83,555.63 1877.02,1522.28 1575.08,2159.08"
         style="fill:#676a6e;fill-opacity:1;fill-rule:nonzero;stroke:none"
         id="path60" /></g></g></svg>
